<mxfile host="app.diagrams.net" modified="2023-06-17T11:27:06.172Z" agent="Mozilla/5.0 (Windows NT 10.0; Win64; x64) AppleWebKit/537.36 (KHTML, like Gecko) Chrome/114.0.0.0 Safari/537.36" etag="2-7HKPcipGFzYzxLhYbv" version="21.4.0" type="device">
  <diagram name="페이지-1" id="H-y6ddiJjLLR2nAf2lNa">
    <mxGraphModel dx="2261" dy="2003" grid="1" gridSize="10" guides="1" tooltips="1" connect="1" arrows="1" fold="1" page="1" pageScale="1" pageWidth="827" pageHeight="1169" math="0" shadow="0">
      <root>
        <mxCell id="0" />
        <mxCell id="1" parent="0" />
        <mxCell id="5oWq3NsO0f6FQ0HPh4Ip-3" value="" style="rounded=0;whiteSpace=wrap;html=1;" parent="1" vertex="1">
          <mxGeometry x="80" y="110" width="720" height="530" as="geometry" />
        </mxCell>
        <mxCell id="fzfQna-HfG8v9erHejv3-1" value="market title" style="rounded=0;whiteSpace=wrap;html=1;fillColor=#fff2cc;strokeColor=#d6b656;" vertex="1" parent="1">
          <mxGeometry x="320" y="130" width="240" height="30" as="geometry" />
        </mxCell>
        <mxCell id="fzfQna-HfG8v9erHejv3-2" value="" style="rounded=0;whiteSpace=wrap;html=1;fillColor=#f8cecc;strokeColor=#b85450;" vertex="1" parent="1">
          <mxGeometry x="100" y="130" width="30" height="30" as="geometry" />
        </mxCell>
        <mxCell id="fzfQna-HfG8v9erHejv3-3" value="" style="shape=callout;whiteSpace=wrap;html=1;perimeter=calloutPerimeter;fillColor=#f8cecc;strokeColor=#b85450;position2=0;base=15;size=20;position=0.13;" vertex="1" parent="1">
          <mxGeometry x="120" y="30" width="150" height="110" as="geometry" />
        </mxCell>
        <mxCell id="fzfQna-HfG8v9erHejv3-4" value="내 정보" style="rounded=0;whiteSpace=wrap;html=1;fillColor=none;strokeColor=#9673a6;" vertex="1" parent="1">
          <mxGeometry x="135" y="40" width="120" height="30" as="geometry" />
        </mxCell>
        <mxCell id="fzfQna-HfG8v9erHejv3-6" value="" style="rounded=0;whiteSpace=wrap;html=1;fillColor=#d5e8d4;strokeColor=#82b366;" vertex="1" parent="1">
          <mxGeometry x="100" y="220" width="680" height="130" as="geometry" />
        </mxCell>
        <mxCell id="fzfQna-HfG8v9erHejv3-7" value="카테고리별" style="text;html=1;strokeColor=#82b366;fillColor=#d5e8d4;align=center;verticalAlign=middle;whiteSpace=wrap;rounded=0;" vertex="1" parent="1">
          <mxGeometry x="100" y="190" width="90" height="30" as="geometry" />
        </mxCell>
        <mxCell id="fzfQna-HfG8v9erHejv3-8" value="Text" style="text;html=1;strokeColor=default;fillColor=none;align=center;verticalAlign=middle;whiteSpace=wrap;rounded=0;" vertex="1" parent="1">
          <mxGeometry x="120" y="240" width="80" height="40" as="geometry" />
        </mxCell>
        <mxCell id="fzfQna-HfG8v9erHejv3-9" value="Text" style="text;html=1;strokeColor=default;fillColor=none;align=center;verticalAlign=middle;whiteSpace=wrap;rounded=0;" vertex="1" parent="1">
          <mxGeometry x="120" y="290" width="80" height="40" as="geometry" />
        </mxCell>
        <mxCell id="fzfQna-HfG8v9erHejv3-10" value="Text" style="text;html=1;strokeColor=default;fillColor=none;align=center;verticalAlign=middle;whiteSpace=wrap;rounded=0;" vertex="1" parent="1">
          <mxGeometry x="230" y="290" width="80" height="40" as="geometry" />
        </mxCell>
        <mxCell id="fzfQna-HfG8v9erHejv3-11" value="Text" style="text;html=1;strokeColor=default;fillColor=none;align=center;verticalAlign=middle;whiteSpace=wrap;rounded=0;" vertex="1" parent="1">
          <mxGeometry x="230" y="240" width="80" height="40" as="geometry" />
        </mxCell>
        <mxCell id="fzfQna-HfG8v9erHejv3-12" value="Text" style="text;html=1;strokeColor=default;fillColor=none;align=center;verticalAlign=middle;whiteSpace=wrap;rounded=0;" vertex="1" parent="1">
          <mxGeometry x="334" y="290" width="80" height="40" as="geometry" />
        </mxCell>
        <mxCell id="fzfQna-HfG8v9erHejv3-13" value="Text" style="text;html=1;strokeColor=default;fillColor=none;align=center;verticalAlign=middle;whiteSpace=wrap;rounded=0;" vertex="1" parent="1">
          <mxGeometry x="334" y="240" width="80" height="40" as="geometry" />
        </mxCell>
        <mxCell id="fzfQna-HfG8v9erHejv3-14" value="Text" style="text;html=1;strokeColor=default;fillColor=none;align=center;verticalAlign=middle;whiteSpace=wrap;rounded=0;" vertex="1" parent="1">
          <mxGeometry x="440" y="290" width="80" height="40" as="geometry" />
        </mxCell>
        <mxCell id="fzfQna-HfG8v9erHejv3-15" value="Text" style="text;html=1;strokeColor=default;fillColor=none;align=center;verticalAlign=middle;whiteSpace=wrap;rounded=0;" vertex="1" parent="1">
          <mxGeometry x="440" y="240" width="80" height="40" as="geometry" />
        </mxCell>
        <mxCell id="fzfQna-HfG8v9erHejv3-16" value="Text" style="text;html=1;strokeColor=default;fillColor=none;align=center;verticalAlign=middle;whiteSpace=wrap;rounded=0;" vertex="1" parent="1">
          <mxGeometry x="550" y="290" width="80" height="40" as="geometry" />
        </mxCell>
        <mxCell id="fzfQna-HfG8v9erHejv3-17" value="Text" style="text;html=1;strokeColor=default;fillColor=none;align=center;verticalAlign=middle;whiteSpace=wrap;rounded=0;" vertex="1" parent="1">
          <mxGeometry x="550" y="240" width="80" height="40" as="geometry" />
        </mxCell>
        <mxCell id="fzfQna-HfG8v9erHejv3-18" value="Text" style="text;html=1;strokeColor=default;fillColor=none;align=center;verticalAlign=middle;whiteSpace=wrap;rounded=0;" vertex="1" parent="1">
          <mxGeometry x="650" y="290" width="80" height="40" as="geometry" />
        </mxCell>
        <mxCell id="fzfQna-HfG8v9erHejv3-19" value="Text" style="text;html=1;strokeColor=default;fillColor=none;align=center;verticalAlign=middle;whiteSpace=wrap;rounded=0;" vertex="1" parent="1">
          <mxGeometry x="650" y="240" width="80" height="40" as="geometry" />
        </mxCell>
        <mxCell id="fzfQna-HfG8v9erHejv3-20" value="" style="rounded=0;whiteSpace=wrap;html=1;fillColor=#e1d5e7;strokeColor=#9673a6;" vertex="1" parent="1">
          <mxGeometry x="100" y="400" width="680" height="100" as="geometry" />
        </mxCell>
        <mxCell id="fzfQna-HfG8v9erHejv3-21" value="최근주문별" style="text;html=1;strokeColor=#9673a6;fillColor=#e1d5e7;align=center;verticalAlign=middle;whiteSpace=wrap;rounded=0;" vertex="1" parent="1">
          <mxGeometry x="100" y="370" width="90" height="30" as="geometry" />
        </mxCell>
        <mxCell id="fzfQna-HfG8v9erHejv3-22" value="Text" style="text;html=1;strokeColor=default;fillColor=none;align=center;verticalAlign=middle;whiteSpace=wrap;rounded=0;" vertex="1" parent="1">
          <mxGeometry x="110" y="420" width="80" height="40" as="geometry" />
        </mxCell>
        <mxCell id="fzfQna-HfG8v9erHejv3-23" value="Text" style="text;html=1;strokeColor=default;fillColor=none;align=center;verticalAlign=middle;whiteSpace=wrap;rounded=0;" vertex="1" parent="1">
          <mxGeometry x="230" y="420" width="80" height="40" as="geometry" />
        </mxCell>
        <mxCell id="fzfQna-HfG8v9erHejv3-24" value="Text" style="text;html=1;strokeColor=default;fillColor=none;align=center;verticalAlign=middle;whiteSpace=wrap;rounded=0;" vertex="1" parent="1">
          <mxGeometry x="334" y="420" width="80" height="40" as="geometry" />
        </mxCell>
        <mxCell id="fzfQna-HfG8v9erHejv3-25" value="Text" style="text;html=1;strokeColor=default;fillColor=none;align=center;verticalAlign=middle;whiteSpace=wrap;rounded=0;" vertex="1" parent="1">
          <mxGeometry x="440" y="420" width="80" height="40" as="geometry" />
        </mxCell>
        <mxCell id="fzfQna-HfG8v9erHejv3-26" value="Text" style="text;html=1;strokeColor=default;fillColor=none;align=center;verticalAlign=middle;whiteSpace=wrap;rounded=0;" vertex="1" parent="1">
          <mxGeometry x="560" y="420" width="80" height="40" as="geometry" />
        </mxCell>
        <mxCell id="fzfQna-HfG8v9erHejv3-27" value="Text" style="text;html=1;strokeColor=default;fillColor=none;align=center;verticalAlign=middle;whiteSpace=wrap;rounded=0;" vertex="1" parent="1">
          <mxGeometry x="680" y="420" width="80" height="40" as="geometry" />
        </mxCell>
        <mxCell id="fzfQna-HfG8v9erHejv3-28" value="" style="rounded=0;whiteSpace=wrap;html=1;fillColor=#fad9d5;strokeColor=#ae4132;" vertex="1" parent="1">
          <mxGeometry x="100" y="550" width="680" height="70" as="geometry" />
        </mxCell>
        <mxCell id="fzfQna-HfG8v9erHejv3-29" value="Text" style="text;html=1;strokeColor=#ae4132;fillColor=#fad9d5;align=center;verticalAlign=middle;whiteSpace=wrap;rounded=0;" vertex="1" parent="1">
          <mxGeometry x="100" y="520" width="90" height="30" as="geometry" />
        </mxCell>
        <mxCell id="fzfQna-HfG8v9erHejv3-31" value="" style="rounded=0;whiteSpace=wrap;html=1;fillColor=#dae8fc;strokeColor=#6c8ebf;" vertex="1" parent="1">
          <mxGeometry x="740" y="130" width="30" height="30" as="geometry" />
        </mxCell>
        <mxCell id="fzfQna-HfG8v9erHejv3-33" value="" style="shape=callout;whiteSpace=wrap;html=1;perimeter=calloutPerimeter;position2=0;fillColor=#dae8fc;strokeColor=#6c8ebf;" vertex="1" parent="1">
          <mxGeometry x="750" y="-220" width="260" height="360" as="geometry" />
        </mxCell>
        <mxCell id="fzfQna-HfG8v9erHejv3-43" value="" style="group" vertex="1" connectable="0" parent="1">
          <mxGeometry x="760" y="-50" width="240" height="120" as="geometry" />
        </mxCell>
        <mxCell id="fzfQna-HfG8v9erHejv3-34" value="" style="rounded=0;whiteSpace=wrap;html=1;" vertex="1" parent="fzfQna-HfG8v9erHejv3-43">
          <mxGeometry width="240" height="120" as="geometry" />
        </mxCell>
        <mxCell id="fzfQna-HfG8v9erHejv3-35" value="매장이름" style="rounded=0;whiteSpace=wrap;html=1;" vertex="1" parent="fzfQna-HfG8v9erHejv3-43">
          <mxGeometry x="10" y="10" width="120" height="20" as="geometry" />
        </mxCell>
        <mxCell id="fzfQna-HfG8v9erHejv3-36" value="메뉴이름" style="rounded=0;whiteSpace=wrap;html=1;" vertex="1" parent="fzfQna-HfG8v9erHejv3-43">
          <mxGeometry x="10" y="40" width="120" height="20" as="geometry" />
        </mxCell>
        <mxCell id="fzfQna-HfG8v9erHejv3-37" value="갯수" style="rounded=0;whiteSpace=wrap;html=1;" vertex="1" parent="fzfQna-HfG8v9erHejv3-43">
          <mxGeometry x="140" y="40" width="90" height="20" as="geometry" />
        </mxCell>
        <mxCell id="fzfQna-HfG8v9erHejv3-38" value="메뉴이름" style="rounded=0;whiteSpace=wrap;html=1;" vertex="1" parent="fzfQna-HfG8v9erHejv3-43">
          <mxGeometry x="10" y="70" width="120" height="20" as="geometry" />
        </mxCell>
        <mxCell id="fzfQna-HfG8v9erHejv3-39" value="갯수" style="rounded=0;whiteSpace=wrap;html=1;" vertex="1" parent="fzfQna-HfG8v9erHejv3-43">
          <mxGeometry x="140" y="70" width="90" height="20" as="geometry" />
        </mxCell>
        <mxCell id="fzfQna-HfG8v9erHejv3-40" value="총가격" style="rounded=0;whiteSpace=wrap;html=1;" vertex="1" parent="fzfQna-HfG8v9erHejv3-43">
          <mxGeometry x="140" y="95" width="90" height="20" as="geometry" />
        </mxCell>
        <mxCell id="fzfQna-HfG8v9erHejv3-44" value="" style="group" vertex="1" connectable="0" parent="1">
          <mxGeometry x="760" y="-180" width="240" height="120" as="geometry" />
        </mxCell>
        <mxCell id="fzfQna-HfG8v9erHejv3-45" value="" style="rounded=0;whiteSpace=wrap;html=1;" vertex="1" parent="fzfQna-HfG8v9erHejv3-44">
          <mxGeometry width="240" height="120" as="geometry" />
        </mxCell>
        <mxCell id="fzfQna-HfG8v9erHejv3-46" value="매장이름" style="rounded=0;whiteSpace=wrap;html=1;" vertex="1" parent="fzfQna-HfG8v9erHejv3-44">
          <mxGeometry x="10" y="10" width="120" height="20" as="geometry" />
        </mxCell>
        <mxCell id="fzfQna-HfG8v9erHejv3-47" value="메뉴이름" style="rounded=0;whiteSpace=wrap;html=1;" vertex="1" parent="fzfQna-HfG8v9erHejv3-44">
          <mxGeometry x="10" y="40" width="120" height="20" as="geometry" />
        </mxCell>
        <mxCell id="fzfQna-HfG8v9erHejv3-48" value="갯수" style="rounded=0;whiteSpace=wrap;html=1;" vertex="1" parent="fzfQna-HfG8v9erHejv3-44">
          <mxGeometry x="140" y="40" width="90" height="20" as="geometry" />
        </mxCell>
        <mxCell id="fzfQna-HfG8v9erHejv3-49" value="메뉴이름" style="rounded=0;whiteSpace=wrap;html=1;" vertex="1" parent="fzfQna-HfG8v9erHejv3-44">
          <mxGeometry x="10" y="70" width="120" height="20" as="geometry" />
        </mxCell>
        <mxCell id="fzfQna-HfG8v9erHejv3-50" value="갯수" style="rounded=0;whiteSpace=wrap;html=1;" vertex="1" parent="fzfQna-HfG8v9erHejv3-44">
          <mxGeometry x="140" y="70" width="90" height="20" as="geometry" />
        </mxCell>
        <mxCell id="fzfQna-HfG8v9erHejv3-51" value="총가격" style="rounded=0;whiteSpace=wrap;html=1;" vertex="1" parent="fzfQna-HfG8v9erHejv3-44">
          <mxGeometry x="140" y="95" width="90" height="20" as="geometry" />
        </mxCell>
        <mxCell id="fzfQna-HfG8v9erHejv3-53" value="cart" style="text;html=1;strokeColor=default;fillColor=none;align=center;verticalAlign=middle;whiteSpace=wrap;rounded=0;" vertex="1" parent="1">
          <mxGeometry x="820" y="-220" width="130" height="30" as="geometry" />
        </mxCell>
        <mxCell id="fzfQna-HfG8v9erHejv3-54" value="총가격" style="text;html=1;strokeColor=default;fillColor=none;align=center;verticalAlign=middle;whiteSpace=wrap;rounded=0;" vertex="1" parent="1">
          <mxGeometry x="900" y="80" width="110" height="30" as="geometry" />
        </mxCell>
        <mxCell id="fzfQna-HfG8v9erHejv3-58" value="localhost:8080" style="text;html=1;strokeColor=none;fillColor=none;align=center;verticalAlign=middle;whiteSpace=wrap;rounded=0;fontSize=21;fontStyle=1" vertex="1" parent="1">
          <mxGeometry x="320" y="40" width="200" height="30" as="geometry" />
        </mxCell>
        <mxCell id="fzfQna-HfG8v9erHejv3-60" value="" style="shape=callout;whiteSpace=wrap;html=1;perimeter=calloutPerimeter;fillColor=#f8cecc;strokeColor=#b85450;position2=1;base=121;size=20;position=0.87;" vertex="1" parent="1">
          <mxGeometry x="-80" y="30" width="180" height="110" as="geometry" />
        </mxCell>
        <mxCell id="fzfQna-HfG8v9erHejv3-61" value="회원가입" style="rounded=0;whiteSpace=wrap;html=1;fillColor=none;strokeColor=#9673a6;" vertex="1" parent="1">
          <mxGeometry x="-60" y="40" width="120" height="30" as="geometry" />
        </mxCell>
        <mxCell id="fzfQna-HfG8v9erHejv3-62" value="로그인" style="rounded=0;whiteSpace=wrap;html=1;fillColor=none;strokeColor=#9673a6;" vertex="1" parent="1">
          <mxGeometry x="-60" y="80" width="120" height="30" as="geometry" />
        </mxCell>
        <mxCell id="fzfQna-HfG8v9erHejv3-63" value="" style="rounded=0;whiteSpace=wrap;html=1;" vertex="1" parent="1">
          <mxGeometry x="-630" y="160" width="430" height="350" as="geometry" />
        </mxCell>
        <mxCell id="fzfQna-HfG8v9erHejv3-65" value="회원가입" style="rounded=0;whiteSpace=wrap;html=1;fillColor=#ffe6cc;strokeColor=#d79b00;" vertex="1" parent="1">
          <mxGeometry x="-600" y="175" width="360" height="35" as="geometry" />
        </mxCell>
        <mxCell id="fzfQna-HfG8v9erHejv3-70" value="" style="rounded=0;whiteSpace=wrap;html=1;fillColor=#f8cecc;strokeColor=#b85450;" vertex="1" parent="1">
          <mxGeometry x="-600" y="240" width="360" height="200" as="geometry" />
        </mxCell>
        <mxCell id="fzfQna-HfG8v9erHejv3-73" value="email" style="rounded=0;whiteSpace=wrap;html=1;" vertex="1" parent="1">
          <mxGeometry x="-580" y="252.5" width="130" height="27.5" as="geometry" />
        </mxCell>
        <mxCell id="fzfQna-HfG8v9erHejv3-74" value="pw" style="rounded=0;whiteSpace=wrap;html=1;" vertex="1" parent="1">
          <mxGeometry x="-580" y="296.25" width="130" height="27.5" as="geometry" />
        </mxCell>
        <mxCell id="fzfQna-HfG8v9erHejv3-75" value="input" style="rounded=0;whiteSpace=wrap;html=1;" vertex="1" parent="1">
          <mxGeometry x="-400" y="252.5" width="130" height="27.5" as="geometry" />
        </mxCell>
        <mxCell id="fzfQna-HfG8v9erHejv3-76" value="input" style="rounded=0;whiteSpace=wrap;html=1;" vertex="1" parent="1">
          <mxGeometry x="-400" y="296.25" width="130" height="27.5" as="geometry" />
        </mxCell>
        <mxCell id="fzfQna-HfG8v9erHejv3-77" value="phone number" style="rounded=0;whiteSpace=wrap;html=1;" vertex="1" parent="1">
          <mxGeometry x="-580" y="340" width="130" height="30" as="geometry" />
        </mxCell>
        <mxCell id="fzfQna-HfG8v9erHejv3-78" value="" style="rounded=0;whiteSpace=wrap;html=1;" vertex="1" parent="1">
          <mxGeometry x="-400" y="340" width="40" height="30" as="geometry" />
        </mxCell>
        <mxCell id="fzfQna-HfG8v9erHejv3-79" value="" style="rounded=0;whiteSpace=wrap;html=1;" vertex="1" parent="1">
          <mxGeometry x="-350" y="340" width="40" height="30" as="geometry" />
        </mxCell>
        <mxCell id="fzfQna-HfG8v9erHejv3-80" value="" style="rounded=0;whiteSpace=wrap;html=1;" vertex="1" parent="1">
          <mxGeometry x="-300" y="340" width="40" height="30" as="geometry" />
        </mxCell>
        <mxCell id="fzfQna-HfG8v9erHejv3-81" value="name" style="rounded=0;whiteSpace=wrap;html=1;" vertex="1" parent="1">
          <mxGeometry x="-580" y="385" width="130" height="30" as="geometry" />
        </mxCell>
        <mxCell id="fzfQna-HfG8v9erHejv3-82" value="input" style="rounded=0;whiteSpace=wrap;html=1;" vertex="1" parent="1">
          <mxGeometry x="-400" y="385" width="130" height="27.5" as="geometry" />
        </mxCell>
        <mxCell id="fzfQna-HfG8v9erHejv3-83" value="현재위치변경" style="rounded=0;whiteSpace=wrap;html=1;fillColor=none;strokeColor=#9673a6;" vertex="1" parent="1">
          <mxGeometry x="135" y="80" width="120" height="30" as="geometry" />
        </mxCell>
        <mxCell id="fzfQna-HfG8v9erHejv3-84" value="submit" style="rounded=0;whiteSpace=wrap;html=1;fillColor=none;strokeColor=#d79b00;" vertex="1" parent="1">
          <mxGeometry x="-485" y="460" width="130" height="27.5" as="geometry" />
        </mxCell>
        <mxCell id="fzfQna-HfG8v9erHejv3-85" value="" style="rounded=0;whiteSpace=wrap;html=1;" vertex="1" parent="1">
          <mxGeometry x="-628" y="550" width="430" height="280" as="geometry" />
        </mxCell>
        <mxCell id="fzfQna-HfG8v9erHejv3-86" value="login" style="rounded=0;whiteSpace=wrap;html=1;fillColor=#ffe6cc;strokeColor=#d79b00;" vertex="1" parent="1">
          <mxGeometry x="-600" y="567" width="360" height="35" as="geometry" />
        </mxCell>
        <mxCell id="fzfQna-HfG8v9erHejv3-87" value="" style="rounded=0;whiteSpace=wrap;html=1;fillColor=#f8cecc;strokeColor=#b85450;" vertex="1" parent="1">
          <mxGeometry x="-600" y="640" width="360" height="120" as="geometry" />
        </mxCell>
        <mxCell id="fzfQna-HfG8v9erHejv3-88" value="submit" style="rounded=0;whiteSpace=wrap;html=1;fillColor=none;strokeColor=#d79b00;" vertex="1" parent="1">
          <mxGeometry x="-485" y="780" width="130" height="27.5" as="geometry" />
        </mxCell>
        <mxCell id="fzfQna-HfG8v9erHejv3-89" value="email" style="rounded=0;whiteSpace=wrap;html=1;" vertex="1" parent="1">
          <mxGeometry x="-580" y="252.5" width="130" height="27.5" as="geometry" />
        </mxCell>
        <mxCell id="fzfQna-HfG8v9erHejv3-90" value="pw" style="rounded=0;whiteSpace=wrap;html=1;" vertex="1" parent="1">
          <mxGeometry x="-580" y="296.25" width="130" height="27.5" as="geometry" />
        </mxCell>
        <mxCell id="fzfQna-HfG8v9erHejv3-91" value="email" style="rounded=0;whiteSpace=wrap;html=1;" vertex="1" parent="1">
          <mxGeometry x="-580" y="670" width="130" height="27.5" as="geometry" />
        </mxCell>
        <mxCell id="fzfQna-HfG8v9erHejv3-92" value="pw" style="rounded=0;whiteSpace=wrap;html=1;" vertex="1" parent="1">
          <mxGeometry x="-580" y="713.75" width="130" height="27.5" as="geometry" />
        </mxCell>
        <mxCell id="fzfQna-HfG8v9erHejv3-93" value="input" style="rounded=0;whiteSpace=wrap;html=1;" vertex="1" parent="1">
          <mxGeometry x="-400" y="713.75" width="130" height="27.5" as="geometry" />
        </mxCell>
        <mxCell id="fzfQna-HfG8v9erHejv3-94" value="input" style="rounded=0;whiteSpace=wrap;html=1;" vertex="1" parent="1">
          <mxGeometry x="-400" y="670" width="130" height="27.5" as="geometry" />
        </mxCell>
      </root>
    </mxGraphModel>
  </diagram>
</mxfile>
